<?xml version="1.0" standalone="no"?>
<!DOCTYPE svg PUBLIC "-//W3C//DTD SVG 20010904//EN"
 "http://www.w3.org/TR/2001/REC-SVG-20010904/DTD/svg10.dtd">
<svg version="1.0" xmlns="http://www.w3.org/2000/svg"
 width="542.000000pt" height="183.000000pt" viewBox="0 0 542.000000 183.000000"
 preserveAspectRatio="xMidYMid meet">

<g transform="translate(0.000000,183.000000) scale(0.100000,-0.100000)"
fill="#000000" stroke="none">
<path d="M605 1292 c0 -423 -1 -438 -21 -472 -45 -78 -139 -99 -208 -46 -19
14 -37 22 -41 18 -5 -4 -5 -2 -2 4 4 7 0 29 -9 49 -8 21 -13 46 -11 57 5 17
-4 18 -134 18 l-139 0 0 -52 c1 -62 39 -184 57 -181 7 2 10 -3 7 -10 -6 -16
33 -67 49 -64 6 1 12 -5 12 -13 0 -8 7 -14 14 -12 7 1 10 -2 7 -7 -8 -13 44
-53 61 -47 7 3 12 0 10 -7 -1 -7 27 -22 63 -34 115 -39 254 -26 356 33 57 33
147 131 140 150 -3 8 -2 13 3 10 11 -7 37 46 50 104 6 27 11 223 11 493 l0
447 -137 0 -138 0 0 -438z m124 -715 c-2 -1 -13 -9 -24 -17 -19 -14 -19 -14
-6 3 7 9 18 17 24 17 6 0 8 -1 6 -3z"/>
<path d="M1350 1714 c-19 -8 -45 -24 -57 -36 -27 -26 -87 -164 -79 -184 3 -8
2 -13 -3 -10 -12 8 -225 -530 -216 -545 5 -7 4 -10 -2 -6 -6 4 -48 -88 -100
-218 l-91 -225 152 0 151 0 78 204 c45 116 76 210 71 217 -4 7 -3 10 4 6 12
-8 75 150 67 170 -2 8 -1 12 4 8 12 -7 35 61 25 76 -4 7 -3 9 3 6 15 -9 45 70
38 97 -5 15 -4 17 3 7 8 -11 11 -11 16 0 5 11 7 11 12 1 3 -6 10 -10 15 -7 5
4 6 0 3 -8 -6 -16 164 -449 175 -443 3 2 7 -10 8 -28 l1 -31 -133 3 c-122 3
-135 1 -144 -15 -11 -22 -78 -194 -91 -236 l-9 -28 288 3 c287 3 288 3 324 28
50 34 80 91 80 154 1 40 -13 85 -63 208 -34 87 -67 155 -71 152 -5 -3 -7 1 -4
8 3 7 -36 114 -86 238 -50 124 -99 246 -109 272 -25 66 -63 131 -79 136 -9 3
-11 0 -6 -8 5 -9 4 -11 -4 -6 -6 4 -9 12 -5 17 8 13 -58 39 -98 39 -18 -1 -49
-8 -68 -16z m224 -100 c3 -8 2 -12 -4 -9 -6 3 -10 10 -10 16 0 14 7 11 14 -7z"/>
<path d="M2600 1689 c-129 -3 -248 -11 -265 -16 -54 -19 -65 -25 -61 -32 2 -3
-7 -7 -20 -7 -28 -2 -96 -43 -89 -54 3 -4 -3 -14 -13 -21 -15 -13 -16 -12 -3
4 7 9 9 17 4 17 -13 0 -45 -35 -38 -42 3 -3 -3 -11 -12 -19 -16 -13 -17 -12
-4 4 20 25 -2 21 -27 -6 -26 -28 -29 -45 -4 -26 15 13 16 12 3 -3 -7 -10 -17
-16 -21 -13 -20 12 -97 -123 -126 -220 -26 -89 -23 -249 6 -340 31 -98 83
-191 100 -180 5 3 12 0 16 -6 4 -8 3 -9 -4 -5 -29 17 -8 -14 41 -62 49 -48 78
-67 61 -40 -4 7 -3 8 5 4 6 -4 9 -11 6 -16 -8 -13 89 -67 165 -91 54 -18 97
-23 255 -27 l190 -4 0 140 0 141 -180 5 c-200 5 -225 8 -218 19 7 12 -12 8
-27 -6 -12 -10 -12 -9 -2 5 15 19 0 34 -20 22 -7 -4 -10 -3 -5 1 4 5 -3 19
-15 32 -25 27 -47 31 -27 6 13 -16 12 -17 -3 -4 -10 7 -15 18 -12 23 3 5 -1
17 -9 26 -57 65 -81 197 -53 286 8 27 12 54 9 59 -3 6 -1 7 5 3 7 -4 12 -3 12
1 0 5 15 26 32 48 18 21 32 48 31 60 -1 15 0 15 3 3 5 -16 10 -15 47 9 64 40
128 53 272 53 l130 0 23 60 c13 33 20 65 16 71 -4 7 -3 9 3 6 6 -4 22 24 38
63 16 39 26 71 24 73 -2 1 -110 -1 -239 -4z m-576 -277 c3 -5 -1 -9 -9 -9 -8
0 -12 4 -9 9 3 4 7 8 9 8 2 0 6 -4 9 -8z"/>
<path d="M3445 1689 c-226 -6 -322 -19 -308 -42 3 -6 1 -7 -6 -3 -17 11 -104
-32 -95 -46 4 -7 3 -8 -5 -4 -14 9 -64 -21 -57 -33 3 -4 -7 -19 -22 -32 -17
-15 -21 -17 -12 -5 13 17 13 19 0 14 -23 -7 -106 -115 -134 -173 -65 -137 -80
-271 -47 -409 12 -49 36 -116 54 -150 32 -60 150 -196 170 -196 5 0 2 10 -9
23 l-19 22 22 -19 c13 -10 20 -22 17 -27 -7 -12 91 -66 166 -90 54 -18 97 -23
255 -27 l190 -4 -3 140 -3 141 -177 5 c-193 5 -222 8 -216 17 6 10 -26 20 -38
12 -6 -3 -8 -1 -4 5 7 12 -33 44 -45 36 -8 -5 -22 13 -25 32 -4 23 -37 64 -47
57 -6 -3 -7 -1 -3 6 4 6 0 31 -9 56 -12 31 -16 64 -13 112 4 61 10 82 56 177
3 5 -1 5 -8 1 -9 -5 -11 -4 -6 4 4 6 11 9 15 7 4 -3 21 8 37 25 16 17 46 40
67 52 20 11 32 24 27 27 -12 7 -10 7 210 16 l155 6 23 59 c13 32 20 64 16 71
-4 6 -3 8 3 5 5 -3 22 26 37 65 15 39 26 71 24 72 -2 0 -106 -2 -233 -5z
m-624 -332 c-10 -9 -11 -8 -5 6 3 10 9 15 12 12 3 -3 0 -11 -7 -18z m109 -677
c0 -5 -2 -10 -4 -10 -3 0 -8 5 -11 10 -3 6 -1 10 4 10 6 0 11 -4 11 -10z"/>
<path d="M4210 1690 c-280 -5 -297 -6 -344 -28 -66 -30 -111 -65 -147 -115
-30 -41 -38 -64 -17 -51 7 4 8 3 4 -5 -4 -6 -11 -9 -16 -6 -16 10 -40 -88 -40
-161 0 -50 7 -91 21 -129 26 -69 79 -140 105 -140 10 0 19 -7 19 -15 0 -8 27
-28 59 -45 57 -29 66 -30 217 -35 172 -5 184 -10 209 -71 10 -23 10 -36 1 -55
-6 -14 -9 -29 -6 -34 3 -4 -3 -14 -13 -21 -15 -13 -16 -12 -3 4 16 21 -1 23
-19 2 -11 -13 -55 -15 -286 -15 l-274 0 0 -141 0 -141 303 4 c290 3 304 4 351
26 74 34 121 72 105 84 -11 8 -10 9 3 4 21 -6 72 50 64 71 -4 9 -2 11 6 7 8
-5 9 -2 5 10 -4 9 -3 15 2 12 16 -10 41 86 41 156 0 84 -26 164 -74 226 -42
53 -95 94 -114 87 -7 -2 -10 0 -7 5 4 6 -11 18 -32 27 -28 12 -81 18 -196 22
l-159 6 -29 33 c-24 26 -29 41 -27 72 2 21 5 37 7 34 2 -2 17 8 33 21 29 25
31 25 234 25 l205 0 15 36 c8 20 13 43 10 51 -3 8 -2 12 3 9 5 -3 25 35 45 86
19 51 34 92 33 92 -1 1 -135 -1 -297 -4z m-340 -682 c0 -4 -4 -8 -9 -8 -6 0
-12 4 -15 8 -3 5 1 9 9 9 8 0 15 -4 15 -9z"/>
<path d="M2950 1549 c0 -5 5 -7 10 -4 6 3 10 8 10 11 0 2 -4 4 -10 4 -5 0 -10
-5 -10 -11z"/>
<path d="M2422 1249 c-73 -37 -105 -110 -88 -204 15 -78 113 -144 196 -131 95
15 169 110 156 200 -19 125 -149 192 -264 135z"/>
<path d="M3264 1251 c-58 -26 -87 -72 -92 -143 -5 -70 9 -108 54 -148 86 -75
206 -58 271 39 34 50 32 143 -2 194 -49 72 -146 96 -231 58z"/>
<path d="M60 255 c0 -87 3 -105 15 -105 11 0 15 12 15 45 l0 45 45 0 c33 0 45
4 45 15 0 11 -12 15 -45 15 -45 0 -45 0 -45 35 l0 35 55 0 c30 0 55 5 55 10 0
6 -30 10 -70 10 l-70 0 0 -105z"/>
<path d="M240 345 c0 -8 7 -15 15 -15 8 0 15 7 15 15 0 8 -7 15 -15 15 -8 0
-15 -7 -15 -15z"/>
<path d="M1260 255 c0 -87 3 -105 15 -105 11 0 15 11 15 39 0 38 0 38 47 44
52 6 73 25 73 67 0 42 -28 60 -93 60 l-57 0 0 -105z m101 75 c41 -23 16 -70
-38 -70 -32 0 -33 1 -33 40 0 36 2 40 26 40 14 0 34 -5 45 -10z"/>
<path d="M1460 255 c0 -87 3 -105 15 -105 12 0 15 13 15 59 0 61 12 77 45 65
11 -5 15 -22 15 -65 0 -46 3 -59 15 -59 12 0 15 14 15 64 0 73 -13 91 -60 84
-28 -4 -30 -3 -30 29 0 23 -5 33 -15 33 -12 0 -15 -18 -15 -105z"/>
<path d="M1630 345 c0 -8 7 -15 15 -15 8 0 15 7 15 15 0 8 -7 15 -15 15 -8 0
-15 -7 -15 -15z"/>
<path d="M1710 267 c0 -92 8 -117 37 -117 7 0 13 7 13 15 0 8 -4 15 -10 15 -6
0 -10 37 -10 90 0 73 -3 90 -15 90 -12 0 -15 -17 -15 -93z"/>
<path d="M1810 345 c0 -8 7 -15 15 -15 8 0 15 7 15 15 0 8 -7 15 -15 15 -8 0
-15 -7 -15 -15z"/>
<path d="M2230 345 c0 -8 7 -15 15 -15 8 0 15 7 15 15 0 8 -7 15 -15 15 -8 0
-15 -7 -15 -15z"/>
<path d="M2924 339 c-15 -16 -19 -36 -19 -86 0 -56 3 -67 24 -84 33 -27 77
-24 109 8 30 30 14 47 -18 18 -10 -9 -30 -15 -46 -13 -34 4 -50 46 -40 102 10
50 39 65 77 37 47 -35 67 -24 29 17 -28 30 -90 30 -116 1z"/>
<path d="M4170 345 c0 -8 7 -15 15 -15 8 0 15 7 15 15 0 8 -7 15 -15 15 -8 0
-15 -7 -15 -15z"/>
<path d="M4070 332 c0 -10 -5 -23 -12 -30 -8 -8 -8 -15 0 -24 6 -8 12 -38 14
-68 3 -48 6 -55 26 -58 25 -4 31 22 7 32 -22 8 -20 82 3 96 16 10 16 10 0 20
-10 6 -18 20 -18 30 0 11 -4 20 -10 20 -5 0 -10 -8 -10 -18z"/>
<path d="M240 225 c0 -60 3 -75 15 -75 12 0 15 15 15 75 0 60 -3 75 -15 75
-12 0 -15 -15 -15 -75z"/>
<path d="M320 223 c0 -58 3 -73 15 -73 11 0 15 13 15 54 0 62 16 84 49 66 17
-9 21 -20 21 -65 0 -42 3 -55 15 -55 12 0 15 13 15 56 0 82 -9 94 -75 92 l-55
-2 0 -73z"/>
<path d="M507 294 c-13 -13 5 -24 29 -18 24 6 54 -9 54 -27 0 -5 -17 -9 -38
-9 -43 0 -62 -14 -62 -45 0 -33 20 -45 72 -45 l48 0 0 63 c0 36 -5 68 -12 75
-13 13 -80 17 -91 6z m81 -96 c2 -12 -5 -19 -23 -24 -31 -8 -50 7 -41 31 8 22
60 16 64 -7z"/>
<path d="M670 224 c0 -59 3 -74 15 -74 12 0 15 13 15 59 0 61 12 77 45 65 11
-5 15 -22 15 -65 0 -46 3 -59 15 -59 12 0 15 14 15 64 0 75 -9 86 -73 84 l-47
-1 0 -73z"/>
<path d="M857 282 c-21 -23 -22 -81 -1 -110 16 -23 66 -30 93 -13 22 14 4 28
-30 23 -35 -5 -49 8 -49 50 0 34 31 54 59 38 13 -7 22 -7 26 0 20 33 -70 43
-98 12z"/>
<path d="M1016 284 c-10 -9 -16 -33 -16 -59 0 -26 6 -50 16 -59 17 -18 71 -21
94 -6 21 13 5 23 -37 24 -28 1 -39 6 -41 19 -3 14 4 17 47 17 28 0 51 2 51 5
0 3 -7 21 -14 40 -13 30 -20 35 -50 35 -19 0 -42 -7 -50 -16z m74 -24 c10 -18
8 -20 -25 -20 -49 0 -47 36 2 39 7 1 17 -8 23 -19z"/>
<path d="M1630 225 c0 -60 3 -75 15 -75 12 0 15 15 15 75 0 60 -3 75 -15 75
-12 0 -15 -15 -15 -75z"/>
<path d="M1810 225 c0 -60 3 -75 15 -75 12 0 15 15 15 75 0 60 -3 75 -15 75
-12 0 -15 -15 -15 -75z"/>
<path d="M1890 194 c0 -86 3 -104 15 -104 10 0 15 10 15 33 0 32 2 33 32 29
41 -6 58 17 58 79 0 57 -12 69 -73 67 l-47 -1 0 -103z m74 80 c20 -8 22 -77 2
-93 -25 -21 -46 -2 -46 43 0 55 8 64 44 50z"/>
<path d="M2060 194 c0 -86 3 -104 15 -104 10 0 15 10 15 33 0 32 2 33 32 29
41 -6 58 17 58 79 0 57 -12 69 -73 67 l-47 -1 0 -103z m74 80 c20 -8 22 -77 2
-93 -25 -21 -46 -2 -46 43 0 55 8 64 44 50z"/>
<path d="M2230 225 c0 -60 3 -75 15 -75 12 0 15 15 15 75 0 60 -3 75 -15 75
-12 0 -15 -15 -15 -75z"/>
<path d="M2310 223 c0 -58 3 -73 15 -73 11 0 15 13 15 54 0 62 16 84 49 66 17
-9 21 -20 21 -65 0 -42 3 -55 15 -55 12 0 15 13 15 56 0 82 -9 94 -75 92 l-55
-2 0 -73z"/>
<path d="M2496 278 c-22 -31 -20 -84 4 -108 21 -21 65 -26 90 -10 21 13 5 23
-37 24 -28 1 -39 6 -41 19 -3 14 4 17 47 17 42 0 51 3 51 18 0 57 -82 86 -114
40z m72 -10 c20 -20 14 -28 -23 -28 -19 0 -35 4 -35 8 0 12 22 32 35 32 6 0
16 -5 23 -12z"/>
<path d="M2662 288 c-16 -16 -16 -43 1 -55 6 -6 29 -13 50 -17 22 -4 37 -13
37 -21 0 -20 -33 -27 -65 -15 -34 13 -55 2 -30 -17 25 -18 90 -17 109 3 34 34
12 74 -40 74 -18 0 -36 5 -40 11 -11 18 18 29 55 22 26 -4 33 -3 29 8 -6 18
-89 24 -106 7z"/>
<path d="M3112 288 c-18 -18 -15 -103 4 -122 22 -22 70 -20 94 4 24 24 26 77
4 108 -17 25 -81 31 -102 10z m72 -24 c32 -31 15 -88 -25 -82 -20 2 -25 10
-27 42 -4 52 21 71 52 40z"/>
<path d="M3280 224 c0 -59 3 -74 15 -74 12 0 15 13 15 60 0 41 4 60 13 61 6 1
21 2 31 3 11 1 21 7 23 13 3 9 -10 12 -46 12 l-51 -2 0 -73z"/>
<path d="M3410 194 c0 -86 3 -104 15 -104 10 0 15 10 15 34 0 34 1 35 34 29
27 -4 36 -1 50 18 18 27 21 66 6 103 -9 24 -14 26 -65 25 l-55 -2 0 -103z m90
67 c14 -28 12 -57 -6 -75 -24 -24 -54 -4 -54 37 0 53 39 77 60 38z"/>
<path d="M3597 282 c-21 -23 -22 -81 -1 -110 10 -15 25 -22 49 -22 46 0 65 22
65 75 0 26 -6 50 -16 59 -21 22 -77 20 -97 -2z m72 -16 c7 -8 11 -30 9 -48 -2
-26 -8 -34 -27 -36 -13 -2 -28 2 -32 10 -15 23 -10 66 9 77 23 14 28 13 41 -3z"/>
<path d="M3760 224 c0 -59 3 -74 15 -74 12 0 15 13 15 60 0 41 4 60 13 61 6 1
21 2 31 3 11 1 21 7 23 13 3 9 -10 12 -46 12 l-51 -2 0 -73z"/>
<path d="M3900 290 c-12 -8 -12 -10 2 -15 10 -4 22 -4 28 0 16 10 50 -4 50
-21 0 -9 -11 -14 -34 -14 -35 0 -66 -21 -66 -45 0 -28 30 -45 81 -44 l49 2 0
54 c0 74 -12 93 -58 93 -20 0 -44 -4 -52 -10z m80 -89 c0 -26 -15 -34 -46 -27
-25 7 -33 31 -11 39 30 13 57 7 57 -12z"/>
<path d="M4170 225 c0 -60 3 -75 15 -75 12 0 15 15 15 75 0 60 -3 75 -15 75
-12 0 -15 -15 -15 -75z"/>
<path d="M4257 282 c-21 -23 -22 -81 -1 -110 10 -15 25 -22 49 -22 46 0 65 22
65 75 0 26 -6 50 -16 59 -21 22 -77 20 -97 -2z m72 -16 c7 -8 11 -30 9 -48 -2
-26 -8 -34 -27 -36 -13 -2 -28 2 -32 10 -15 23 -10 66 9 77 23 14 28 13 41 -3z"/>
<path d="M4420 223 c0 -58 3 -73 15 -73 11 0 15 13 15 54 0 62 16 84 49 66 17
-9 21 -20 21 -65 0 -42 3 -55 15 -55 12 0 15 13 15 56 0 82 -9 94 -75 92 l-55
-2 0 -73z"/>
</g>
</svg>
